<svg class="icon" viewBox="0 0 1024 1024" version="1.1" xmlns="http://www.w3.org/2000/svg" p-id="7015" height="128" width="128"><path d="M549.554512 511.539522l271.784151-269.430599c5.525732-5.525732 8.288598-12.688718 8.288598-19.954032s-2.762866-14.4283-8.288598-19.954032c-11.051464-11.051464-28.8566-11.051464-39.908064 0L509.441791 471.836115 237.452983 202.200859c-11.051464-11.051464-28.8566-11.051464-39.908064 0-5.525732 5.525732-8.288598 12.688718-8.288598 19.954032s2.762866 14.4283 8.288598 19.954032l271.784151 269.430599L197.544919 780.970121c-5.525732 5.525732-8.288598 12.688718-8.288598 19.954032s2.762866 14.4283 8.288598 19.954032c5.525732 5.525732 12.688718 8.288598 19.954032 8.288598s14.4283-2.762866 19.954032-8.288598L509.441791 551.24293l271.988808 269.635255c5.525732 5.525732 12.688718 8.288598 19.954032 8.288598s14.4283-2.762866 19.954032-8.288598 8.288598-12.688718 8.288598-19.954032-2.762866-14.4283-8.288598-19.954032L549.554512 511.539522z" p-id="7016"></path></svg>